<svg xmlns="http://www.w3.org/2000/svg" width="220" height="72" viewBox="0 0 220 72" role="img" aria-labelledby="title">
  <title id="title">eQuoo</title>
  <rect width="220" height="72" rx="12" fill="#fffefa"/>
  <path d="M42 39.7c.6 3.1 3.4 5.3 7.5 5.3 2.7 0 5.1-.8 7.2-2.5l3.7 5.1c-2.9 2.4-6.6 3.6-11.1 3.6-4.9 0-8.8-1.4-11.7-4.1-2.9-2.8-4.3-6.3-4.3-10.8 0-4.4 1.4-7.9 4.1-10.7 2.8-2.8 6.3-4.2 10.6-4.2 4.2 0 7.6 1.3 10.1 3.9 2.6 2.6 3.9 6.1 3.9 10.5 0 1.5-.1 2.8-.3 3.9H42Zm6.1-12.3c-3.3 0-5.5 2-6.1 5h12.1c-.4-3.1-2.5-5-6-5Zm40.7 23.9-3.4-3c-2.5 1.9-5.6 2.9-9.1 2.9-4.6 0-8.3-1.4-11.2-4.2-2.8-2.8-4.3-6.3-4.3-10.6s1.4-7.9 4.3-10.7c2.9-2.8 6.6-4.2 11.2-4.2s8.3 1.4 11.2 4.2c2.9 2.8 4.3 6.4 4.3 10.7 0 2.6-.5 4.9-1.6 6.9l3.2 2.9-4.6 5.1ZM76.3 43.8c1.2 0 2.3-.2 3.2-.7l-3.6-3.2 4.6-5.1 3.3 3c.2-.6.2-1.1.2-1.5 0-2.1-.7-3.8-2.1-5.2-1.4-1.4-3.3-2.1-5.5-2.1s-4.1.7-5.5 2.1c-1.4 1.4-2.1 3.1-2.1 5.2s.7 3.8 2.1 5.2c1.3 1.5 3.1 2.3 5.4 2.3Zm31.2 7.4c-3.8 0-6.8-1.1-9.1-3.2-2.2-2.1-3.4-5.1-3.4-9V22.1h8.2v16.2c0 3.5 1.6 5.2 4.8 5.2s4.8-1.7 4.8-5.2V22.1h8.2V39c0 3.9-1.2 6.9-3.5 9-2.3 2.1-5.6 3.2-10 3.2Zm32.1 0c-4.5 0-8.1-1.4-10.9-4.2-2.8-2.8-4.2-6.3-4.2-10.6s1.4-7.9 4.2-10.7c2.8-2.8 6.5-4.2 10.9-4.2s8.1 1.4 10.9 4.2c2.8 2.8 4.2 6.4 4.2 10.7s-1.4 7.8-4.2 10.6c-2.8 2.8-6.4 4.2-10.9 4.2Zm0-7.4c2.1 0 3.8-.7 5.1-2.1 1.3-1.4 1.9-3.2 1.9-5.3s-.6-3.9-1.9-5.3c-1.3-1.4-3-2.1-5.1-2.1s-3.8.7-5.1 2.1c-1.3 1.4-1.9 3.2-1.9 5.3s.6 3.9 1.9 5.3c1.3 1.4 3 2.1 5.1 2.1Z" fill="#100d18"/>
</svg>
