<?xml version="1.0" encoding="UTF-8"?>
<svg width="197px" height="36px" viewBox="0 0 197 36" version="1.1" xmlns="http://www.w3.org/2000/svg" xmlns:xlink="http://www.w3.org/1999/xlink">
    <!-- Generator: Sketch 51.2 (57519) - http://www.bohemiancoding.com/sketch -->
    <title>Group</title>
    <desc>Created with Sketch.</desc>
    <defs></defs>
    <g id="New-Website" stroke="none" stroke-width="1" fill="none" fill-rule="evenodd">
        <g id="Artboard-Copy" transform="translate(-29.000000, -20.000000)" fill="#001343">
            <g id="Group" transform="translate(29.000000, 20.000000)">
                <polyline id="Fill-1" points="45.060458 27.4954067 45.060458 4.24984639 50.5574986 4.24984639 50.5574986 22.4056836 61.4885412 22.4056836 61.4885412 27.4954067 45.060458 27.4954067"></polyline>
                <path d="M63.2201561,19.209803 C63.2201561,16.6678425 63.9935176,14.5876532 65.5399157,12.968894 C67.0863138,11.3501347 69.0694336,10.5409257 71.4899252,10.5409257 C73.9100918,10.5409257 75.880214,11.3112271 77.4002918,12.8521713 C78.9200447,14.3927741 79.6800836,16.3924179 79.6800836,18.8511026 C79.6800836,19.7411984 79.6482393,20.4029682 79.5848756,20.8370946 L68.3519621,20.8370946 C68.849773,22.6060234 70.0202134,23.4903171 71.8632833,23.4903171 L71.8951276,23.4903171 C73.0178016,23.4903171 73.8226825,23.0954395 74.3100952,22.305343 L79.5530313,22.305343 C79.1611515,24.0186408 78.2659368,25.3759686 76.8680371,26.3773263 C75.4698125,27.3783427 73.7908382,27.8790216 71.831439,27.8790216 C69.268298,27.8790216 67.1922448,27.0698126 65.6032793,25.4510534 C64.0146388,23.8322941 63.2201561,21.7521049 63.2201561,19.209803 L63.2201561,19.209803 Z M68.3201178,17.5828527 L74.7390184,17.5828527 C74.4316234,15.7361088 73.3937593,14.8129075 71.6247761,14.8129075 C69.8561178,14.8129075 68.754565,15.7361088 68.3201178,17.5828527 L68.3201178,17.5828527 Z" id="Fill-2"></path>
                <path d="M81.4913092,21.7882821 L86.1782699,21.8213876 C86.390132,23.2121622 87.3857537,23.9073789 89.1651351,23.9073789 C89.8640849,23.9073789 90.4203853,23.8046493 90.8333864,23.5988488 C91.2463874,23.3930482 91.4530504,23.106361 91.4530504,22.7394695 C91.4530504,22.1275287 90.9393174,21.7435725 89.9118514,21.5879423 L86.7342454,21.0039876 C85.3045014,20.7480168 84.1711044,20.2002393 83.3343792,19.3603138 C82.497654,18.5203884 82.079129,17.4050383 82.079129,16.0142637 C82.079129,14.3009659 82.7251133,12.9494402 84.0174069,11.9593452 C85.3097005,10.9692502 86.9724277,10.474032 89.0062385,10.474032 C91.0397244,10.474032 92.7690647,10.9303426 94.1936096,11.8426225 C95.6181545,12.7545611 96.3941156,14.2122294 96.5211678,16.2146035 L91.8023628,16.2146035 C91.7601204,15.6026627 91.4952928,15.143963 91.008205,14.837822 C90.5207923,14.5320222 89.9303731,14.3791223 89.2366223,14.3791223 C88.5428715,14.3791223 88.0213399,14.4931147 87.6717025,14.7210993 C87.3220651,14.949084 87.1472464,15.2299692 87.1472464,15.5637551 C87.1472464,16.2200642 87.7035468,16.6538494 88.8154977,16.8654519 L91.7389992,17.3828542 C95.0329343,18.0169791 96.6800644,19.6910281 96.6800644,22.4056836 C96.6800644,24.2302434 95.9915127,25.6206767 94.6147342,26.5773248 C93.2376308,27.5343143 91.4556499,28.0124677 89.2684666,28.0124677 C87.0812832,28.0124677 85.2752567,27.4981371 83.8507117,26.4691345 C82.4258419,25.4397906 81.6394827,23.879734 81.4913092,21.7882821" id="Fill-3"></path>
                <path d="M98.4435236,21.7882821 L103.130484,21.8213876 C103.342346,23.2121622 104.337968,23.9073789 106.117349,23.9073789 C106.816624,23.9073789 107.3726,23.8046493 107.785601,23.5988488 C108.198927,23.3930482 108.405265,23.106361 108.405265,22.7394695 C108.405265,22.1275287 107.891532,21.7435725 106.864066,21.5879423 L103.686785,21.0039876 C102.256716,20.7480168 101.123319,20.2002393 100.286594,19.3603138 C99.4498684,18.5203884 99.0313433,17.4050383 99.0313433,16.0142637 C99.0313433,14.3009659 99.6776526,12.9494402 100.969946,11.9593452 C102.261915,10.9692502 103.924967,10.474032 105.958453,10.474032 C107.992264,10.474032 109.721279,10.9303426 111.146149,11.8426225 C112.570694,12.7545611 113.34633,14.2122294 113.473707,16.2146035 L108.754902,16.2146035 C108.71266,15.6026627 108.447832,15.143963 107.960419,14.837822 C107.473332,14.5320222 106.882587,14.3791223 106.188837,14.3791223 C105.495086,14.3791223 104.973554,14.4931147 104.623917,14.7210993 C104.274604,14.949084 104.099786,15.2299692 104.099786,15.5637551 C104.099786,16.2200642 104.655761,16.6538494 105.768037,16.8654519 L108.691214,17.3828542 C111.985474,18.0169791 113.632604,19.6910281 113.632604,22.4056836 C113.632604,24.2302434 112.944052,25.6206767 111.566949,26.5773248 C110.19017,27.5343143 108.407864,28.0124677 106.220681,28.0124677 C104.033498,28.0124677 102.227471,27.4981371 100.802926,26.4691345 C99.3783812,25.4397906 98.592022,23.879734 98.4435236,21.7882821" id="Fill-4"></path>
                <path d="M115.761297,19.2016119 C115.761297,16.6763748 116.566503,14.601305 118.176265,12.977085 C119.786352,11.3528651 121.830561,10.5409257 124.309217,10.5409257 C126.787548,10.5409257 128.837281,11.3528651 130.457766,12.977085 C132.067528,14.601305 132.872733,16.6763748 132.872733,19.2016119 C132.872733,21.7159277 132.067528,23.8128403 130.457766,25.4926913 C128.837281,27.1725422 126.787548,28.0124677 124.309217,28.0124677 C121.830561,28.0124677 119.786352,27.1725422 118.176265,25.4926913 C116.566503,23.8128403 115.761297,21.7159277 115.761297,19.2016119 L115.761297,19.2016119 Z M120.766051,19.2517822 C120.776774,20.3640606 121.11049,21.3043266 121.767197,22.0718977 C122.423579,22.8394688 123.276552,23.2234249 124.325139,23.2234249 C125.373726,23.2234249 126.231573,22.8394688 126.898678,22.0718977 C127.555386,21.3043266 127.883902,20.3640606 127.883902,19.2517822 C127.883902,18.1391625 127.555386,17.2046985 126.898678,16.4480489 C126.252694,15.6917405 125.400046,15.3135864 124.340736,15.3135864 C123.281751,15.3135864 122.41838,15.6917405 121.751275,16.4480489 C121.094567,17.2046985 120.766051,18.1391625 120.766051,19.2517822 L120.766051,19.2517822 Z" id="Fill-5"></path>
                <path d="M135.764391,27.4954067 L135.764391,10.9245406 L141.054768,10.9245406 L141.054768,12.0091742 C142.389629,10.941264 143.835295,10.4074796 145.392416,10.4074796 C147.38366,10.4074796 148.998946,11.0972356 150.238274,12.4767475 C151.477277,13.855918 152.096941,15.708464 152.096941,18.0333613 L152.096941,27.4954067 L146.82216,27.4954067 L146.82216,18.9179963 C146.82216,17.7831925 146.568056,16.9183525 146.059522,16.3231351 C145.551313,15.7279177 144.820519,15.430309 143.86714,15.430309 C142.91376,15.430309 141.976303,15.9753562 141.054768,17.0657917 L141.054768,27.4954067 L135.764391,27.4954067" id="Fill-6"></path>
                <path d="M155.306391,16.6651121 L155.306391,4.24984639 L160.851198,4.24984639 L160.851198,16.7651114 C160.861921,18.5453028 161.290844,19.9637223 162.138293,21.020711 C162.985416,22.0773584 164.139934,22.6060234 165.601847,22.6060234 C167.063436,22.6060234 168.223153,22.0773584 169.080999,21.020711 C169.949569,19.9637223 170.384016,18.5453028 170.384016,16.7651114 L170.384016,4.24984639 L175.912901,4.24984639 L175.912901,16.6651121 C175.912901,20.2473379 174.991366,23.0340066 173.148296,25.0254593 C171.305551,27.016912 168.789852,28.0124677 165.601847,28.0124677 C162.413518,28.0124677 159.897819,27.016912 158.055074,25.0254593 C156.222402,23.0340066 155.306391,20.2473379 155.306391,16.6651121" id="Fill-7"></path>
                <path d="M179.328689,35.1881821 L179.328689,10.9245406 L184.619392,10.9245406 L184.619392,11.7757288 C185.900963,10.9525267 187.33623,10.5409257 188.925196,10.5409257 C191.075336,10.5409257 192.918406,11.3750492 194.454081,13.0439787 C195.990081,14.7125669 196.757918,16.7596506 196.757918,19.1848885 C196.757918,21.6101264 195.990081,23.6626708 194.454081,25.3425217 C192.928804,27.0001886 191.101656,27.8291926 188.972637,27.8291926 L188.925196,27.8291926 C187.33623,27.8291926 185.900963,27.4230523 184.619392,26.6107717 L184.619392,35.1881821 L179.328689,35.1881821 L179.328689,35.1881821 Z M184.619392,21.7882821 C185.46684,22.7892985 186.483583,23.2899773 187.669946,23.2899773 C188.856308,23.2899773 189.809688,22.8950997 190.529759,22.1053445 C191.239432,21.315248 191.594268,20.3418765 191.594268,19.1848885 C191.594268,18.0279006 191.239432,17.0490683 190.529759,16.2480504 C189.830809,15.4470325 188.888153,15.0463529 187.70179,15.0463529 C186.515427,15.0463529 185.487961,15.5637551 184.619392,16.5982184 L184.619392,21.7882821 L184.619392,21.7882821 Z" id="Fill-8"></path>
                <path d="M7.04896274,16.931273 C4.97485915,16.1251356 1.45378967,17.1193262 1.45378967,17.1193262 L0,15.4353797 C4.61384879,11.0395081 8.39032254,11.1005998 10.169054,11.4924057 L10.1212876,11.5651014 C9.41746361,12.6343767 8.75588208,13.7340272 8.13459333,14.8579096 C7.75733589,15.5401571 7.39502577,16.2312782 7.04896274,16.931273" id="Fill-9"></path>
                <path d="M21.0581791,24.0827554 C21.2102519,26.0510001 20.7644317,29.8803231 16.3130538,34.1215884 L14.859914,32.4393484 C14.859914,32.4393484 16.1190635,28.926064 15.5965571,26.6762514 C16.6129751,26.2731828 17.6163954,25.8332543 18.6042185,25.3578312 C19.433795,24.9588581 20.2529733,24.5342879 21.0581791,24.0827554" id="Fill-10"></path>
                <path d="M5.77876519,24.1984542 C5.77876519,24.1984542 2.9088791,24.4807047 2.47768132,28.7055878 C2.47768132,28.7055878 6.1612217,28.7748706 7.02101774,25.9919562 C7.65855358,23.9196167 5.77876519,24.1984542 5.77876519,24.1984542" id="Fill-11"></path>
                <path d="M12.6330878,26.8472399 C13.0473886,26.7199371 13.4587649,26.5813716 13.8678667,26.4363215 C14.2964649,26.2841042 14.7224636,26.1243784 15.1465127,25.9578268 C16.3039554,25.5039052 17.4448261,25.0015199 18.5645756,24.4523772 C19.9926949,23.7520412 21.387995,22.9749139 22.7313045,22.1087087 C23.9901291,21.2967694 25.2041117,20.4053085 26.3443325,19.4179438 C26.6042859,19.1930308 26.8603401,18.9629984 27.1118451,18.7275053 C28.6046277,17.3316113 29.9505367,15.7449337 30.9945748,13.9497252 C31.1349496,13.7084301 31.2698005,13.4633808 31.3984774,13.2149184 C31.5706966,12.8831803 31.7321927,12.5449576 31.8816659,12.2012741 C32.1078254,11.6814828 32.3073397,11.1487223 32.4766344,10.6057229 C32.5942633,10.2296165 32.6959701,9.84804937 32.7889035,9.46409319 C32.9299282,8.8808211 33.048207,8.29072311 33.132042,7.69516442 C33.1690854,7.43202645 33.199305,7.16820589 33.221726,6.90302016 C33.2389479,6.69551317 33.2512957,6.48766489 33.2577945,6.27913403 C33.2626686,6.11940826 33.2642933,5.95968249 33.2620187,5.79961542 C33.2600691,5.66514544 33.255195,5.53033416 33.2473964,5.39586417 C33.1983301,4.5559387 33.0277357,3.7112351 32.652103,2.96209394 C32.590364,2.83888666 32.523426,2.71875104 32.450964,2.60202836 C32.3473075,2.43479412 32.2322781,2.27506835 32.1075005,2.12455752 C31.9135102,1.89111217 31.6951493,1.68053353 31.4585917,1.49521068 C31.1021305,1.21569059 30.7060264,0.995214416 30.2927005,0.824567225 C29.6792103,0.571668089 29.0286768,0.426617977 28.3752188,0.350850624 C27.843614,0.289076341 27.3071351,0.273035505 26.7726058,0.290441519 C26.2179301,0.308871415 25.6642293,0.363137222 25.1154026,0.4494847 C24.9370095,0.477470839 24.7589414,0.508869923 24.5818481,0.544364538 C24.454146,0.569961617 24.3267688,0.597606462 24.2000415,0.629346839 C24.1613734,0.638903082 24.1106825,0.655285212 24.0726643,0.666547927 C23.9859048,0.6924863 23.8991454,0.719107261 23.8127108,0.746410812 C23.5761532,0.82183687 23.3408953,0.902723639 23.1075871,0.989071117 C22.3062806,1.28565593 21.5270701,1.64708668 20.7745049,2.06141806 C19.4519917,2.78974027 18.2133135,3.68017731 17.0594451,4.67436785 C15.5712116,5.95695213 14.2214034,7.41189008 12.9882492,8.96273175 C12.2022149,9.95112028 11.4629723,10.9804641 10.7659721,12.0401832 C10.1108894,13.0353976 9.49317505,14.057233 8.91055438,15.1009112 C8.46440927,15.9005639 8.03906044,16.7128446 7.63678247,17.5377531 C7.48276006,17.8531091 7.332312,18.1705129 7.18576324,18.4899644 C7.02751658,18.8346717 6.87414404,19.1814268 6.72824517,19.5319361 C6.73214447,19.5667482 6.73669365,19.6012189 6.7409179,19.6356896 C6.75846476,19.7732313 6.77828621,19.9107729 6.80103213,20.0472907 C6.84132492,20.2875619 6.89039113,20.5257854 6.94855572,20.7616198 C7.10257813,21.3855059 7.32158892,21.9909622 7.60721277,22.5616064 C7.93507906,23.2172329 8.35002975,23.8233717 8.83354317,24.3626168 C9.44573354,25.0452056 10.1641799,25.6192627 10.9424155,26.0769385 C11.1867718,26.2209647 11.4373019,26.3533869 11.6930311,26.4738639 C11.9513599,26.595706 12.2152126,26.7049202 12.4839395,26.7984348 C12.5333306,26.8151582 12.5830467,26.8315404 12.6330878,26.8472399 L12.6330878,26.8472399 Z M23.9930535,14.7630298 C22.5542112,16.1319615 20.332909,16.0169453 19.0276177,14.5074003 C17.7229763,12.9978552 17.8321568,10.6620365 19.2690495,9.29276341 C20.7072419,7.92383165 22.9282192,8.03816527 24.2338354,9.54941679 C25.5381519,11.057938 25.4292964,13.3937567 23.9930535,14.7630298 L23.9930535,14.7630298 Z" id="Fill-12"></path>
                <path d="M23.4884189,14.1787338 C22.3576214,15.2544937 20.6094344,15.1650745 19.5829433,13.9773701 C18.5577518,12.7913721 18.6422367,10.9538432 19.7736841,9.8770594 C20.9038317,8.79959303 22.6516937,8.89071863 23.677535,10.0784231 C24.7033763,11.2644211 24.6182416,13.1012674 23.4884189,14.1787338 L23.4884189,14.1787338 Z M22.4950718,11.204012 C22.1594069,11.5238048 21.6440492,11.4971838 21.3412034,11.1463332 C21.0373828,10.7961652 21.0627283,10.2524832 21.3967685,9.93439685 C21.7324334,9.61528661 22.2477911,9.64122498 22.5516117,9.99344078 C22.8538075,10.3442914 22.829112,10.8855843 22.4950718,11.204012 L22.4950718,11.204012 Z" id="Fill-13"></path>
            </g>
        </g>
    </g>
</svg>
