<svg width="245" height="40" viewBox="0 0 245 40" fill="none" xmlns="http://www.w3.org/2000/svg">
<g clip-path="url(#clip0_3473_234)">
<path d="M36.7326 20.9725C37.9768 13.8629 39.221 6.99041 40.4059 0.0585938H54.9212C54.8619 0.591811 51.8403 17.5955 49.826 29.2077C48.8188 34.9546 43.8422 39.1611 37.9768 39.1611C33.8296 39.1611 30.0378 37.0282 27.7865 33.5327C23.9355 27.4303 18.3663 18.5434 18.1886 18.2472C16.9444 25.3567 15.7003 32.2293 14.5153 39.1018H0C0.177739 37.9762 3.25854 21.0318 5.27291 9.83422C6.28008 4.14658 11.2568 0.0585938 17.0037 0.0585938C21.0917 0.0585938 24.9426 2.19146 27.1347 5.62773C30.9265 11.7301 36.5549 20.6763 36.7326 20.9725Z" fill="#0b1528"/>
<path d="M96.9866 27.9635C96.3349 31.6961 95.6832 35.3693 95.0316 39.0426C81.2269 39.0426 67.482 39.0426 53.6777 39.0426C54.1514 36.1988 54.6256 33.4735 55.1586 30.6889C55.9289 26.3046 56.6993 21.9205 57.4691 17.5362C58.4174 12.0856 59.4246 6.63491 60.3724 1.18427C60.55 0.0585946 60.6093 0.0585938 61.7351 0.0585938C74.769 0.0585938 87.8034 0.0585938 100.838 0.0585938C101.193 0.0585938 101.489 0.0585938 101.963 0.0585938C101.311 3.7911 100.66 7.46437 100.008 11.1969C91.0617 11.1969 82.1158 11.1969 73.1695 11.1969C72.992 12.3226 72.814 13.4482 72.5772 14.6332C81.3455 14.6332 90.0546 14.6332 98.8823 14.6332C98.2899 18.0102 97.6976 21.2687 97.1052 24.6458C88.3364 24.6458 79.6274 24.6458 70.7997 24.6458C70.6221 25.7714 70.3848 26.8379 70.148 28.0228C79.1537 27.9635 87.9809 27.9635 96.9866 27.9635Z" fill="#0b1528"/>
<path d="M127.201 28.6153C127.853 27.5488 128.445 26.6009 129.037 25.6529C134.074 17.2992 139.11 9.00475 144.205 0.651055C144.442 0.295578 144.619 0.0585938 145.153 0.0585938C149.833 0.0585938 154.454 0.0585938 159.135 0.0585938C159.253 0.0585938 159.372 0.0585928 159.608 0.117839C159.431 0.41407 159.372 0.591811 159.253 0.828795C151.67 13.389 144.027 25.9492 136.444 38.5686C136.206 38.9241 136.029 39.1611 135.495 39.1611C128.741 39.1611 122.046 39.1611 115.292 39.1611C115.115 39.1611 114.996 39.1611 114.759 39.1018C111.441 26.1269 108.183 13.152 104.865 0.0585938C105.221 0.0585938 105.517 0.0585938 105.813 0.0585938C110.257 0.0585938 114.7 0.0585938 119.144 0.0585938C119.855 0.0585938 120.091 0.354825 120.21 0.947288C122.461 9.95273 124.772 19.0174 127.082 28.0228C127.082 28.1413 127.142 28.319 127.201 28.6153Z" fill="#0b1528"/>
<path d="M244.865 0C242.968 2.01437 241.25 3.91025 239.532 5.74686C233.252 12.5009 227.031 19.1958 220.751 25.9498C220.1 26.6608 220.159 27.5495 219.981 28.3197C219.329 31.8745 218.737 35.37 218.085 38.984C213.227 38.984 208.428 38.984 203.57 38.984C203.925 37.0289 204.281 35.0738 204.577 33.1186C204.933 30.9858 205.347 28.8529 205.703 26.72C205.762 26.4238 205.584 26.0683 205.406 25.7721C200.667 17.5369 195.868 9.18315 191.069 0.888693C190.95 0.651709 190.832 0.414722 190.654 0.0592452C191.01 0.0592452 191.247 0.0592452 191.424 0.0592452C196.342 0.0592452 201.2 0.0592452 206.117 0.0592452C206.65 0.0592452 206.947 0.236983 207.184 0.710953C209.672 5.09518 212.22 9.47937 214.767 13.8636C214.886 14.1006 215.064 14.3376 215.241 14.6338C217.256 12.4417 219.211 10.3088 221.225 8.17598C223.536 5.68762 225.846 3.19929 228.157 0.651709C228.572 0.236984 228.927 0.0592452 229.52 0.0592452C234.319 0.0592452 239.118 0.0592452 243.976 0.0592452C244.154 -9.04261e-07 244.39 0 244.865 0Z" fill="#0b1528"/>
<path d="M172.881 26.7793C180.346 26.7793 187.693 26.7793 195.217 26.7793C194.506 30.8673 193.795 34.896 193.084 38.984C180.821 38.984 168.497 38.984 156.174 38.984C156.589 36.7919 156.944 34.5405 157.359 32.3484C158.425 26.2461 159.492 20.1437 160.558 13.9821C161.328 9.53865 162.158 5.09518 162.928 0.592461C162.987 0.236985 163.106 0 163.58 0C168.142 0 172.703 0 177.206 0C177.325 0 177.384 0.0592452 177.562 0.0592452C176.022 9.0054 174.481 17.8331 172.881 26.7793Z" fill="#0b1528"/>
</g>
<defs>
<clipPath id="clip0_3473_234">
<rect width="245" height="39.3993" fill="#0b1528"/>
</clipPath>
</defs>
</svg>
