<svg xmlns="http://www.w3.org/2000/svg" width="800" height="420" viewBox="0 0 800 420" role="img" aria-label="Illustrative wireframe for weekly cadence and dashboard">
  <rect width="800" height="420" fill="#f8f9f4"/>
  <rect x="40" y="40" width="500" height="200" rx="14" fill="#fffefa" stroke="rgba(16,13,24,0.14)" stroke-width="2"/>
  <rect x="560" y="40" width="200" height="200" rx="14" fill="#6657ff" opacity="0.1" stroke="rgba(102,87,255,0.3)" stroke-width="2"/>
  <rect x="64" y="72" width="180" height="10" rx="4" fill="rgba(16,13,24,0.12)"/>
  <rect x="64" y="96" width="420" height="8" rx="3" fill="rgba(16,13,24,0.08)"/>
  <rect x="64" y="116" width="400" height="8" rx="3" fill="rgba(16,13,24,0.08)"/>
  <rect x="64" y="148" width="452" height="72" rx="10" fill="rgba(102,87,255,0.06)"/>
  <rect x="40" y="260" width="720" height="120" rx="14" fill="#fffefa" stroke="rgba(16,13,24,0.14)" stroke-width="2"/>
  <rect x="64" y="288" width="140" height="64" rx="8" fill="rgba(16,13,24,0.06)"/>
  <rect x="220" y="288" width="140" height="64" rx="8" fill="rgba(16,13,24,0.06)"/>
  <rect x="376" y="288" width="140" height="64" rx="8" fill="rgba(16,13,24,0.06)"/>
  <rect x="532" y="288" width="140" height="64" rx="8" fill="rgba(16,13,24,0.06)"/>
  <rect x="688" y="288" width="48" height="64" rx="8" fill="rgba(102,87,255,0.15)"/>
</svg>
